<svg width="936" height="1224" viewBox="0 0 936 1224" fill="none" xmlns="http://www.w3.org/2000/svg">
<path d="M866.904 323.163C797.96 318.353 774.722 317.403 696.087 316.187L654.391 315.645L665.74 304.513L677.374 293.318L703.532 293.935C724.585 294.46 736.547 293.066 761.219 286.825C778.525 282.479 815.321 274.21 843.037 268.208C871.038 262.143 893.61 257.255 892.915 256.807C892.567 256.583 872.21 256.505 847.381 256.498C797.437 256.547 748.407 263.576 711.905 275.968C699.928 280.058 690.114 283.081 689.99 282.509C689.928 282.224 692.514 278.972 695.957 275.534C700.867 270.582 712.496 266.268 743.902 257.971C789.123 245.784 788.328 246.255 831.27 209.734C842.357 200.154 851.738 195.131 866.001 190.546C890.873 182.467 880.702 181.081 847.496 187.973C818.004 194.061 794.298 203.383 766.239 220.229C753.738 227.423 743.338 233.265 742.99 233.042C742.642 232.818 749.272 220.613 757.693 205.628C771.4 180.524 820.239 67.6448 818.091 66.016C816.291 64.6111 754.689 139.274 739.444 161.421C724.584 182.587 711.505 214.734 704.55 246.153C700.973 262.781 690.375 281.529 683.804 282.952C682.09 283.323 683.485 277.337 686.857 269.428C697.398 243.514 702.548 217.571 703.417 185.675C704.225 153.494 702.486 105.412 700.32 95.4115C698.611 88.9017 677.302 194.921 673.737 226.802C672.436 238.75 671.029 258.498 671.057 271.055L670.617 293.884L651.987 308.688C641.51 316.939 632.947 322.982 632.761 322.124C632.576 321.267 638.978 298.344 647.147 271.149C655.316 243.953 663.476 212.573 665.248 201.42C668.245 180.73 673.837 49.0989 671.466 47.8177C670.423 47.1462 652.488 127.308 638.024 198.642C634.832 214.289 628.991 250.851 625.217 280.385C618.146 333.366 615.245 342.071 603.083 345.303C601.083 345.737 603.394 328.784 607.819 307.784C619.277 252.955 620.083 238.722 616.325 182.701C612.692 127.252 615.084 101.009 629.79 37.6998C634.463 17.8426 637.979 0.928317 637.793 0.0711433C637.608 -0.786032 632.831 8.92327 627.182 21.5135C614.179 51.2511 605.309 84.8796 600.758 123.256C598.671 139.861 593.097 167.99 588.501 185.437C576.368 230.242 572.782 289.647 578.616 342.825L580.638 361.83L567.937 370.863C560.679 376.024 554.255 379.51 553.274 379.124C552.517 378.39 555.001 347.042 559.39 309.299C568.02 231.751 568.294 198.488 560.861 142.067C557.996 120.552 553.504 83.2371 550.715 59.3126C544.914 11.8112 544.705 9.46353 543.362 11.5492C542.914 12.2444 541.164 42.8353 539.794 79.3264C538.425 115.817 536.602 159.885 535.619 177.447C533.196 227.029 533.325 285.63 536.177 338.855C537.523 365.784 537.554 389.408 535.925 391.556C533.015 396.075 490.75 424.672 489.012 423.553C488.317 423.105 494.677 390.319 503.104 350.505C511.593 310.976 519.964 263.995 521.804 246.247C524.744 218.39 523.771 16.3905 520.704 14.6616C518.966 13.5424 496.095 180.025 486.778 261.311C482.089 301.812 477.127 357.626 475.963 385.398C473.878 431.018 472.992 436.594 466.915 440.303C463.224 442.598 452.5 449.707 442.794 455.997L425.198 467.286L429.099 449.391C431.467 439.605 439.155 407.429 446.606 378.296C469.256 288.139 471.644 268.777 471.904 173.299C471.945 136.198 472.254 90.6638 472.355 71.7968C472.519 53.2155 472.382 37.3913 471.687 36.9437C470.992 36.496 468.162 49.6722 465.503 66.4009C462.783 82.8438 454.798 128.844 447.738 168.063C427.728 280.083 421.657 323.874 414.503 404.094L407.663 478.861L383.48 494.269C370.022 502.568 358.317 509.291 357.56 508.557C356.579 508.172 364.54 460.681 375.155 403.343C393.454 302.761 393.892 297.88 392.372 256.332C390.333 211.007 392.72 191.645 413.029 94.8161C426.082 32.1636 427.678 24.3397 426.535 24.5873C425.963 24.711 422.005 35.4395 417.909 48.2918C413.465 60.9202 406.058 81.9676 400.981 94.4341C388.573 125.538 379.07 159.005 371.029 197.838C367.475 215.957 362.33 235.019 359.668 240.681C350.075 261.304 339.553 295.59 333.979 323.719C327.581 357.709 326.25 392.995 329.187 465.945C330.17 495.345 330.696 521.255 330.048 523.789C329.339 526.036 319.657 533.817 308.361 541.049C287.807 553.876 287.807 553.876 288.446 547.157C288.56 543.543 295.779 492.623 304.022 434.004C319.06 326.651 320.013 314.479 316.039 233.977C315.393 218.563 314.506 177.176 314.347 141.913C313.902 106.713 313.266 77.536 312.285 77.1502C311.59 76.7025 310.99 82.2168 310.537 89.7931C309.773 113.889 300.465 199.361 295.387 229.775C292.666 246.218 284.806 274.842 277.762 293.418C251.489 361.327 248.467 398.475 255.729 563.217C256.095 571.812 254.628 573.326 235.827 584.577C224.693 591.177 215.088 596.547 214.678 596.038C213.983 595.59 214.751 582.561 216.105 566.713C220.413 520.313 222.904 464.136 222.068 436.797C221.445 422.873 215.653 379.557 209.014 340.613C198.861 282.687 196.986 265.744 198.378 248.692C200.886 218.834 212.123 175.42 226.521 139.697C233.59 122.611 238.519 108.083 237.539 107.697C231.977 104.115 195.38 175.457 184.534 211.009C173.911 246.213 172.9 269.166 178.934 320.506C185.758 378.255 184.832 402.984 174.186 436.698C166.703 460.155 168.063 484.389 180.334 549.334L191.739 610.279L161.456 627.905C144.692 637.518 129.906 645.208 128.353 644.946C126.168 644.522 128.817 623.607 149.249 480.387C160.327 401.71 159.234 369.043 141.606 244.834C133.958 192.947 127.371 150.103 126.961 149.593C125.509 148.412 125.347 149.045 124.138 202.851C122.952 258.147 117.657 311.043 105.998 385.658C88.6366 494.711 88.2929 505.554 98.1658 603.623C101.397 633.734 103.066 659.396 102.394 660.439C100.032 663.344 58.9774 685.098 57.3012 684.264C56.606 683.817 64.063 629.854 73.5781 564.678C93.542 431.729 93.38 432.362 90.6908 360.556C89.6074 332.075 88.4599 274.292 88.43 232.72C88.3383 190.862 88.0555 155.028 87.7461 153.6C87.0891 151.947 85.2877 168.49 83.3953 190.138C75.1821 290.33 64.4384 353.978 49.0063 393.215C18.4659 470.424 13.6912 509.148 18.0942 645.494L20.1463 706.071L-4.46959 719.479C-18.1133 726.921 -29.2092 732.315 -29.333 731.744C-29.4567 731.172 -25.355 711.439 -20.6291 687.682C-6.9282 622.496 -4.78833 601.991 -5.62652 545.637C-6.81841 448.978 -7.46097 444.63 -33.8556 317.235C-49.0259 243.047 -58.137 203.741 -58.4899 210.398C-58.7428 216.136 -56.5349 235.999 -53.4935 254.185C-43.7032 314.582 -46.4266 366.921 -63.5196 449.593C-78.0685 519.15 -78.1165 581.08 -64.8469 719.693C-61.8544 752.846 -61.6306 752.498 -83.5603 761.735L-93.1275 765.901L-93.2063 739.296C-93.0336 724.9 -92.2353 688.533 -91.5042 658.761C-89.2927 577.817 -90.7435 558.688 -105.275 477.78C-112.51 437.469 -120.491 382.663 -122.694 355.919C-126.942 308.68 -132.069 224.24 -131.572 208.577C-131.581 204.392 -132.2 201.534 -132.872 202.577C-134.886 205.706 -143.067 311.574 -142.859 331.869C-142.418 356.003 -145.56 403.647 -150.735 446.047C-162.263 543.367 -159.628 590.059 -135.272 719.092C-128.927 753.912 -123.882 782.732 -124.33 783.427C-124.715 784.408 -171.114 809.114 -173.114 809.547C-173.399 809.609 -171.951 799.724 -169.793 787.59C-167.349 775.395 -164.499 752.642 -162.86 736.733L-160.105 708.018L-177.927 625.729C-196.739 538.869 -211.43 487.609 -245.128 391.41C-273.174 311.634 -275.917 308.639 -262.774 370.703C-252.416 419.91 -250.022 440.629 -246.4 509.84C-245.03 538.26 -217.301 706.347 -203.935 768.063C-192.486 820.922 -192.548 820.637 -211.659 830.459C-224.06 836.734 -227.712 837.824 -228.331 834.967C-228.764 832.967 -228.51 809.281 -227.508 782.142C-226.042 733.665 -226.065 732.175 -236.057 691.564C-247.758 644.443 -251.839 636.652 -284.379 602.42C-303.392 582.308 -358.999 532.731 -379.307 517.686L-388.879 510.786L-380.998 519.548C-376.679 524.296 -357.071 545.775 -337.525 566.967C-288.69 619.806 -284.101 627.187 -276.056 664.331C-271.105 687.189 -269.973 700.704 -271.132 721.595C-272.182 745.752 -271.182 754.51 -261.405 799.654L-250.39 850.513L-261.2 855.846C-267.115 858.921 -276.334 863.311 -281.392 866.201C-286.511 868.806 -291.692 871.124 -292.55 871.31C-293.407 871.496 -294.716 861.31 -295.315 848.876C-297.088 813.066 -310.383 755.821 -323.329 727.814C-337.465 697.074 -342.602 691.307 -367.706 677.6C-395.182 662.612 -401.377 658.868 -411.319 650.253L-419.747 643.105L-411.148 653.805C-386.679 685.299 -370.086 719.096 -362.536 753.954C-359.319 768.812 -349.416 796.58 -335.89 828.648C-323.801 856.841 -314.989 880.956 -315.884 882.346C-317.961 885.189 -417.252 933.615 -453.297 949.498C-465.312 954.792 -475.327 959.654 -475.775 960.349C-477.118 962.434 -441.133 975.281 -436.561 974.29C-433.132 973.548 -276.665 889.407 -263.493 881.17C-260.312 879.284 -258.231 887.508 -249.511 934.677C-241.967 976.416 -236.445 999.151 -227.733 1024.19C-204.124 1091.76 -202.176 1095.23 -148.695 1162.61C-121.607 1196.53 -98.5754 1224.15 -97.4325 1223.9C-96.5754 1223.71 -97.0704 1221.43 -98.7703 1219.1C-113.521 1196.57 -171.17 1090.61 -176.327 1076.47C-179.983 1066.49 -188.18 1034.16 -194.678 1004.16C-205.26 955.305 -208.159 946.061 -223.98 910.302C-233.502 888.434 -241.587 870.443 -241.649 870.157C-241.896 869.014 -214.261 854.354 -210.261 853.488C-208.261 853.055 -179.111 886.825 -145.533 928.609C-112.016 970.108 -75.8431 1012.83 -65.2437 1023.09C-54.2349 1033.87 -18.4222 1061.11 18.1002 1086.11C53.5179 1110.14 104.602 1145.74 131.577 1165.33C205.712 1218.97 208.307 1219.9 155.552 1176.59C122.026 1148.85 93.8181 1116.67 52.2413 1058.67C16.5829 1008.66 -7.17286 985.989 -121.72 893.539L-188.055 840.004L-168.782 829.548C-158.095 823.644 -146.042 817.145 -141.842 814.441C-137.58 812.022 -133.827 810.013 -133.256 809.889C-132.399 809.703 -68.7934 875.496 -35.31 911.318C14.5674 964.828 57.9748 1000.89 92.5407 1018.24C125.368 1034.46 247.919 1089.28 250.49 1088.72C251.633 1088.47 218.015 1065.84 175.607 1038.53L98.6623 988.493L53.5948 930.95C2.32311 865.477 -14.7807 850.038 -71.0457 816.756C-89.5689 805.811 -104.578 795.9 -103.906 794.858C-102.116 792.077 -46.2358 761.429 -40.8689 759.967C-36.0116 758.915 -5.87135 797.256 36.9577 858.275C59.0174 889.692 90.3624 928.072 107.428 944.716C114.304 951.603 143.102 974.082 171.306 995.194C199.795 1016.24 244.955 1050.73 271.668 1071.87C338.103 1124.49 345.465 1129.47 309.681 1096.84C275.473 1065.96 247.976 1031.53 210.361 973.873C174.446 918.536 148.433 890.966 43.1152 798.313C11.6503 770.429 -13.5577 746.574 -12.9481 745.245C-12.0764 742.364 11.6823 729.142 13.1965 730.609C16.9201 733.99 80.711 800.64 102.938 824.542C140.74 865.113 177.304 899.969 197.142 914.218C206.365 920.896 230.103 935.198 250.054 945.833C303.329 974.976 368.137 1011.79 423.421 1044.69C450.511 1060.66 472.386 1073.27 472.2 1072.41C471.953 1071.27 454.958 1059.1 433.978 1045.09C387.028 1013.38 355.987 983.314 299.625 915.056C266.418 874.985 232.096 847.72 112.819 767.961L36.1981 716.654L58.3662 704.374C70.6432 697.528 83.2678 690.905 86.6346 689.876C91.0824 688.315 101.187 696.297 138.161 731.662C193.181 784.059 194.572 784.954 269.526 839.614C302.186 863.35 336.261 889.473 345.284 897.988C365.826 916.871 421.412 976.024 461.124 1021.27C477.356 1039.59 490.66 1054.06 491.169 1053.65C493.631 1049.82 296.805 802.596 272.516 778.841C247.47 754.353 167.02 707.464 116.135 687.974C109.269 685.273 103.545 682.325 103.298 681.182C102.926 679.468 160.621 647.529 166.621 646.23C168.335 645.859 187.153 660.927 208.043 680.034C343.297 801.8 373.291 820.131 503.9 862.438C593.356 891.523 674.16 913.806 673.17 909.234C673.047 908.663 648.214 897.589 617.905 884.71C576.334 866.792 548.982 852.375 505.493 825.6C474.047 806.087 426.348 777.83 399.22 763.066C354.736 738.6 195.308 636.427 194.256 631.57C193.823 629.57 238.807 602.478 240.321 603.945C246.192 608.955 385.366 721.197 406.618 737.833C442.207 765.422 490.191 793.617 521.395 805.105C534.433 810.059 580.699 827.558 624.146 844.472C667.531 861.1 708.955 876.956 716.107 879.595L729.083 884.262L721.883 878.643C718.222 875.547 688.837 855.887 657.019 834.66C625.263 813.719 563.365 772.384 519.605 742.976C436.951 687.291 398.167 664.283 313.007 620.508C285.431 606.439 262.065 593.851 261.184 592.546C260.365 591.527 269.947 584.666 282.162 577.533L304.492 564.621L386.895 608.095C533.077 685.018 544.153 689.2 643.453 709.871C677.915 717.064 728.72 727.897 756.339 733.881C834.763 750.697 834.253 751.107 775.721 726.692C754.016 717.633 693.051 691.651 640.28 668.979C528.444 620.812 483.792 603.86 401.674 578.272C368.655 568.074 337.474 558.076 332.631 556.432L323.293 553.37L355.653 532.901L387.727 512.493L467.077 551.544C582.546 608.197 581.565 607.811 717.999 634.2C766.718 643.689 807.961 651.807 809.575 652.355C810.904 652.965 812.047 652.717 811.861 651.86C811.366 649.574 578.126 557.405 541.917 544.907C524.16 538.881 486.299 527.04 457.613 518.895C428.928 510.749 406.266 502.795 407.385 501.057C409.4 497.928 448.545 471.502 452.26 470.698C453.689 470.389 495.745 486.407 546.059 506.021C596.148 525.983 643.272 543.296 651.096 544.892C658.919 546.488 686.553 549.776 712.572 552.517C738.592 555.257 786.445 560.747 819.083 565.045C851.435 569.405 879.069 572.693 880.498 572.383C881.641 572.136 865.174 567.925 843.479 563.052C786.564 550.251 744.493 536.928 679.466 511.527C616.338 486.612 572.329 474.008 515.524 464.475C494.995 460.844 477.223 457.514 475.833 456.619C473.523 455.623 515.456 424.107 520.598 422.993C521.741 422.746 557.332 432.387 600.074 444.667C666.026 463.287 682.655 466.865 712.327 468.515C731.38 469.474 775.633 472.154 810.471 474.18C845.372 476.493 874.286 477.41 874.734 476.714C875.182 476.019 866.787 474.547 856.267 472.937C817.196 467.938 776.053 458.901 701.543 439.442C631.406 420.831 616.801 418.311 541.214 410.452C537.252 410.113 565.602 386.325 571.888 384.963C573.031 384.716 613.179 396.062 660.826 410.271C717.116 427.095 751.602 435.779 759.85 435.19C766.669 434.909 803.569 436.789 841.637 439.911C879.642 442.747 909.661 444.621 908.271 443.726C899.766 438.987 732.152 402.601 669.423 391.957C629.061 385.144 592.437 379.017 588.065 378.169C580.527 376.512 580.751 376.164 597.281 362.713L614.097 349.2L686.026 365.03C736.035 376.334 765.53 381.313 783.193 381.376C797.241 381.325 829.77 382.356 855.356 383.097C881.004 384.123 902.057 384.648 902.566 384.239C903.847 381.867 736.237 356.548 685.465 351.391C653.645 348.112 626.236 344.477 624.621 343.929C623.231 343.034 627.793 337.858 634.704 332.473L647.566 322.807L686.176 331.196C752.628 345.221 775.481 347.151 814.897 341.307C834.064 338.651 868.87 335.002 891.899 333.604C915.214 332.144 934.852 330.283 935.238 329.302C935.686 328.607 905.195 325.938 866.904 323.163Z" fill="#FFF6DA"/>
</svg>
